<mxfile host="app.diagrams.net" agent="Mozilla/5.0 (Windows NT 10.0; Win64; x64) AppleWebKit/537.36 (KHTML, like Gecko) Chrome/133.0.0.0 Safari/537.36" version="26.0.15">
  <diagram name="Page-1" id="Xl0hY92h5xA1TFCjzn_O">
    <mxGraphModel>
      <root>
        <mxCell id="0" />
        <mxCell id="1" parent="0" />
        <mxCell id="2" value="Transaction Handling" style="whiteSpace=wrap;strokeWidth=2;verticalAlign=top;" vertex="1" parent="1">
          <mxGeometry x="8" y="8" width="803" height="1211" as="geometry" />
        </mxCell>
        <mxCell id="3" value="Start" style="whiteSpace=wrap;strokeWidth=2;" vertex="1" parent="2">
          <mxGeometry x="446" y="46" width="95" height="54" as="geometry" />
        </mxCell>
        <mxCell id="4" value="Select Transaction Type" style="rhombus;strokeWidth=2;whiteSpace=wrap;" vertex="1" parent="2">
          <mxGeometry x="382" y="175" width="222" height="222" as="geometry" />
        </mxCell>
        <mxCell id="5" value="Initiate Deposit" style="whiteSpace=wrap;strokeWidth=2;" vertex="1" parent="2">
          <mxGeometry x="55" y="494" width="170" height="54" as="geometry" />
        </mxCell>
        <mxCell id="6" value="Initiate Withdrawal" style="whiteSpace=wrap;strokeWidth=2;" vertex="1" parent="2">
          <mxGeometry x="276" y="494" width="199" height="54" as="geometry" />
        </mxCell>
        <mxCell id="7" value="Initiate Transfer" style="whiteSpace=wrap;strokeWidth=2;" vertex="1" parent="2">
          <mxGeometry x="524" y="494" width="175" height="54" as="geometry" />
        </mxCell>
        <mxCell id="8" value="Verify Details" style="rhombus;strokeWidth=2;whiteSpace=wrap;" vertex="1" parent="2">
          <mxGeometry x="295" y="623" width="150" height="150" as="geometry" />
        </mxCell>
        <mxCell id="9" value="Complete Transaction" style="whiteSpace=wrap;strokeWidth=2;" vertex="1" parent="2">
          <mxGeometry x="45" y="870" width="215" height="54" as="geometry" />
        </mxCell>
        <mxCell id="10" value="Request Correction" style="whiteSpace=wrap;strokeWidth=2;" vertex="1" parent="2">
          <mxGeometry x="579" y="870" width="197" height="54" as="geometry" />
        </mxCell>
        <mxCell id="11" value="Transaction Successful" style="whiteSpace=wrap;strokeWidth=2;" vertex="1" parent="2">
          <mxGeometry x="43" y="999" width="220" height="54" as="geometry" />
        </mxCell>
        <mxCell id="12" value="End" style="whiteSpace=wrap;strokeWidth=2;" vertex="1" parent="2">
          <mxGeometry x="110" y="1128" width="86" height="54" as="geometry" />
        </mxCell>
        <mxCell id="13" value="" style="curved=1;startArrow=none;endArrow=block;exitX=0.5;exitY=0.99;entryX=0.5;entryY=0;" edge="1" parent="2" source="3" target="4">
          <mxGeometry relative="1" as="geometry">
            <Array as="points" />
          </mxGeometry>
        </mxCell>
        <mxCell id="14" value="Deposit" style="curved=1;startArrow=none;endArrow=block;exitX=0;exitY=0.72;entryX=0.5;entryY=0;" edge="1" parent="2" source="4" target="5">
          <mxGeometry relative="1" as="geometry">
            <Array as="points">
              <mxPoint x="141" y="445" />
            </Array>
          </mxGeometry>
        </mxCell>
        <mxCell id="15" value="Withdraw" style="curved=1;startArrow=none;endArrow=block;exitX=0.13;exitY=1;entryX=0.5;entryY=0;" edge="1" parent="2" source="4" target="6">
          <mxGeometry relative="1" as="geometry">
            <Array as="points">
              <mxPoint x="375" y="445" />
            </Array>
          </mxGeometry>
        </mxCell>
        <mxCell id="16" value="Transfer" style="curved=1;startArrow=none;endArrow=block;exitX=0.87;exitY=1;entryX=0.5;entryY=0;" edge="1" parent="2" source="4" target="7">
          <mxGeometry relative="1" as="geometry">
            <Array as="points">
              <mxPoint x="612" y="445" />
            </Array>
          </mxGeometry>
        </mxCell>
        <mxCell id="17" value="" style="curved=1;startArrow=none;endArrow=block;exitX=0.5;exitY=1;entryX=0;entryY=0.25;" edge="1" parent="2" source="5" target="8">
          <mxGeometry relative="1" as="geometry">
            <Array as="points">
              <mxPoint x="141" y="586" />
            </Array>
          </mxGeometry>
        </mxCell>
        <mxCell id="18" value="" style="curved=1;startArrow=none;endArrow=block;exitX=0.5;exitY=1;entryX=0.52;entryY=0;" edge="1" parent="2" source="6" target="8">
          <mxGeometry relative="1" as="geometry">
            <Array as="points">
              <mxPoint x="375" y="586" />
            </Array>
          </mxGeometry>
        </mxCell>
        <mxCell id="19" value="" style="curved=1;startArrow=none;endArrow=block;exitX=0.5;exitY=1;entryX=0.99;entryY=0.27;" edge="1" parent="2" source="7" target="8">
          <mxGeometry relative="1" as="geometry">
            <Array as="points">
              <mxPoint x="612" y="586" />
            </Array>
          </mxGeometry>
        </mxCell>
        <mxCell id="20" value="Valid" style="curved=1;startArrow=none;endArrow=block;exitX=0;exitY=0.78;entryX=0.5;entryY=0;" edge="1" parent="2" source="8" target="9">
          <mxGeometry relative="1" as="geometry">
            <Array as="points">
              <mxPoint x="153" y="821" />
            </Array>
          </mxGeometry>
        </mxCell>
        <mxCell id="21" value="Invalid" style="curved=1;startArrow=none;endArrow=block;exitX=0.99;exitY=0.75;entryX=0.39;entryY=0;" edge="1" parent="2" source="8" target="10">
          <mxGeometry relative="1" as="geometry">
            <Array as="points">
              <mxPoint x="616" y="821" />
            </Array>
          </mxGeometry>
        </mxCell>
        <mxCell id="22" value="" style="curved=1;startArrow=none;endArrow=block;exitX=0.5;exitY=1;entryX=0.5;entryY=0;" edge="1" parent="2" source="9" target="11">
          <mxGeometry relative="1" as="geometry">
            <Array as="points" />
          </mxGeometry>
        </mxCell>
        <mxCell id="23" value="" style="curved=1;startArrow=none;endArrow=block;exitX=0.6;exitY=0;entryX=1;entryY=0.83;" edge="1" parent="2" source="10" target="4">
          <mxGeometry relative="1" as="geometry">
            <Array as="points">
              <mxPoint x="734" y="821" />
              <mxPoint x="734" y="445" />
            </Array>
          </mxGeometry>
        </mxCell>
        <mxCell id="24" value="" style="curved=1;startArrow=none;endArrow=block;exitX=0.5;exitY=1;entryX=0.5;entryY=0;" edge="1" parent="2" source="11" target="12">
          <mxGeometry relative="1" as="geometry">
            <Array as="points" />
          </mxGeometry>
        </mxCell>
        <mxCell id="25" value="User Authentication" style="whiteSpace=wrap;strokeWidth=2;verticalAlign=top;" vertex="1" parent="1">
          <mxGeometry x="861" y="242" width="574" height="744" as="geometry" />
        </mxCell>
        <mxCell id="26" value="Start" style="whiteSpace=wrap;strokeWidth=2;" vertex="1" parent="25">
          <mxGeometry x="316" y="46" width="95" height="54" as="geometry" />
        </mxCell>
        <mxCell id="27" value="Login Page" style="rhombus;strokeWidth=2;whiteSpace=wrap;" vertex="1" parent="25">
          <mxGeometry x="298" y="175" width="130" height="130" as="geometry" />
        </mxCell>
        <mxCell id="28" value="Authenticate User" style="whiteSpace=wrap;strokeWidth=2;" vertex="1" parent="25">
          <mxGeometry x="58" y="402" width="190" height="54" as="geometry" />
        </mxCell>
        <mxCell id="29" value="Handle Incorrect Attempts" style="whiteSpace=wrap;strokeWidth=2;" vertex="1" parent="25">
          <mxGeometry x="297" y="402" width="250" height="54" as="geometry" />
        </mxCell>
        <mxCell id="30" value="Redirect to Dashboard" style="whiteSpace=wrap;strokeWidth=2;" vertex="1" parent="25">
          <mxGeometry x="43" y="531" width="219" height="54" as="geometry" />
        </mxCell>
        <mxCell id="31" value="End" style="whiteSpace=wrap;strokeWidth=2;" vertex="1" parent="25">
          <mxGeometry x="109" y="660" width="86" height="54" as="geometry" />
        </mxCell>
        <mxCell id="32" value="" style="curved=1;startArrow=none;endArrow=block;exitX=0.5;exitY=0.99;entryX=0.5;entryY=0;" edge="1" parent="25" source="26" target="27">
          <mxGeometry relative="1" as="geometry">
            <Array as="points" />
          </mxGeometry>
        </mxCell>
        <mxCell id="33" value="Valid Credentials" style="curved=1;startArrow=none;endArrow=block;exitX=0;exitY=0.77;entryX=0.5;entryY=0;" edge="1" parent="25" source="27" target="28">
          <mxGeometry relative="1" as="geometry">
            <Array as="points">
              <mxPoint x="153" y="353" />
            </Array>
          </mxGeometry>
        </mxCell>
        <mxCell id="34" value="Invalid Credentials" style="curved=1;startArrow=none;endArrow=block;exitX=0.5;exitY=1;entryX=0.42;entryY=0;" edge="1" parent="25" source="27" target="29">
          <mxGeometry relative="1" as="geometry">
            <Array as="points">
              <mxPoint x="363" y="353" />
            </Array>
          </mxGeometry>
        </mxCell>
        <mxCell id="35" value="" style="curved=1;startArrow=none;endArrow=block;exitX=0.5;exitY=1;entryX=0.5;entryY=0;" edge="1" parent="25" source="28" target="30">
          <mxGeometry relative="1" as="geometry">
            <Array as="points" />
          </mxGeometry>
        </mxCell>
        <mxCell id="36" value="" style="curved=1;startArrow=none;endArrow=block;exitX=0.6;exitY=0;entryX=1;entryY=0.94;" edge="1" parent="25" source="29" target="27">
          <mxGeometry relative="1" as="geometry">
            <Array as="points">
              <mxPoint x="492" y="353" />
            </Array>
          </mxGeometry>
        </mxCell>
        <mxCell id="37" value="" style="curved=1;startArrow=none;endArrow=block;exitX=0.5;exitY=1;entryX=0.51;entryY=0;" edge="1" parent="25" source="30" target="31">
          <mxGeometry relative="1" as="geometry">
            <Array as="points" />
          </mxGeometry>
        </mxCell>
      </root>
    </mxGraphModel>
  </diagram>
</mxfile>
